<?xml version="1.0" standalone="no"?><!DOCTYPE svg PUBLIC "-//W3C//DTD SVG 1.1//EN" "http://www.w3.org/Graphics/SVG/1.1/DTD/svg11.dtd"><svg t="1718070534182" class="icon" viewBox="0 0 1024 1024" version="1.1" xmlns="http://www.w3.org/2000/svg" p-id="6765" xmlns:xlink="http://www.w3.org/1999/xlink" width="200" height="200"><path d="M879.936577 192.034595a16.005766 16.005766 0 0 1 4.255135 31.423423l-4.255135 0.576577h-256a16.005766 16.005766 0 0 1-4.255136-31.458018l4.255136-0.565045z m0 96a16.005766 16.005766 0 0 1 4.255135 31.388828l-4.255135 0.576577h-256a16.005766 16.005766 0 0 1-4.255136-31.434955l4.255136-0.565045zM512 128a31.988468 31.988468 0 0 1 32 32v223.873153A32 32 0 0 1 512 415.873153H288A32 32 0 0 1 256 383.873153V160A31.988468 31.988468 0 0 1 288 128z m367.936577 256a16.005766 16.005766 0 0 1 4.255135 31.423423l-4.255135 0.576577h-256a16.005766 16.005766 0 0 1-4.255136-31.434955l4.255136-0.565045z m0 95.965405a15.994234 15.994234 0 0 1 4.255135 31.423424l-4.255135 0.576576h-607.942343a15.994234 15.994234 0 0 1-4.243603-31.423423l4.243603-0.576577z m-607.942343 96.034595h608a15.994234 15.994234 0 0 1 4.255135 31.423423l-4.255135 0.576577H271.994234a15.994234 15.994234 0 0 1-4.243603-31.423423l4.243603-0.576577z m608 96a15.994234 15.994234 0 0 1 4.255135 31.423423l-4.255135 0.576577h-256a15.994234 15.994234 0 0 1-4.243603-31.423423l4.243603-0.576577z m-352 0a15.994234 15.994234 0 0 1 4.255135 31.423423l-4.255135 0.576577h-256a15.994234 15.994234 0 0 1-4.243603-31.423423l4.243603-0.576577zM879.994234 768a15.994234 15.994234 0 0 1 4.255135 31.423423l-4.255135 0.576577h-256a15.994234 15.994234 0 0 1-4.243603-31.423423l4.243603-0.576577z m-352 0a15.994234 15.994234 0 0 1 4.255135 31.423423l-4.255135 0.576577h-256a15.994234 15.994234 0 0 1-4.243603-31.423423l4.243603-0.576577z m352 96a15.994234 15.994234 0 0 1 4.255135 31.423423l-4.255135 0.576577h-256a15.994234 15.994234 0 0 1-4.243603-31.423423l4.243603-0.576577z m-352 0a15.994234 15.994234 0 0 1 4.255135 31.423423l-4.255135 0.576577h-256a15.994234 15.994234 0 0 1-4.243603-31.423423l4.243603-0.576577zM928 64h-704A32.011532 32.011532 0 0 0 192.576577 90.245766l-0.518919 5.765766v768a32 32 0 0 1-63.423424 5.765765l-0.518919-5.765765v-640H96A32.011532 32.011532 0 0 0 64.576577 250.234234l-0.518919 5.765766v640a64.115315 64.115315 0 0 0 55.985585 63.504144l8.072072 0.495856H896a64.138378 64.138378 0 0 0 63.504144-55.927928l0.495856-8.072072V96a32.034595 32.034595 0 0 0-32-32z m0-64a96.011532 96.011532 0 0 1 95.504144 86.186667l0.495856 9.813333V896a128 128 0 0 1-117.506306 127.573333l-10.493694 0.426667H128A128 128 0 0 1 0.426667 906.493694L0 896V256a96.011532 96.011532 0 0 1 86.186667-95.504144l9.813333-0.495856H128v-64A96.011532 96.011532 0 0 1 214.186667 0.495856l9.813333-0.495856z" fill="#444444" p-id="6766"></path></svg>