<?xml version="1.0" standalone="no"?><!DOCTYPE svg PUBLIC "-//W3C//DTD SVG 1.1//EN" "http://www.w3.org/Graphics/SVG/1.1/DTD/svg11.dtd"><svg t="1718070367593" class="icon" viewBox="0 0 1024 1024" version="1.1" xmlns="http://www.w3.org/2000/svg" p-id="5617" xmlns:xlink="http://www.w3.org/1999/xlink" width="200" height="200"><path d="M792.48 339.66l-28.72-16.34a27.254 27.254 0 0 0-26.97 0l-28.72 16.34c-5.37 3.06-12.04-0.82-12.04-7V150.9c0-4.45 3.61-8.05 8.05-8.05h92.38c4.45 0 8.05 3.61 8.05 8.05v181.76c0.01 6.18-6.66 10.06-12.03 7zM600.77 457.8H505.5c-15.03 0-27.21-12.19-27.21-27.21 0-15.02 12.18-27.21 27.21-27.21h95.26c15.03 0 27.21 12.19 27.21 27.21 0.01 15.02-12.17 27.21-27.2 27.21zM767.41 712.22H505.5c-15.03 0-27.21-12.19-27.21-27.21 0-15.02 12.18-27.21 27.21-27.21h261.91c15.03 0 27.21 12.19 27.21 27.21 0.01 15.02-12.18 27.21-27.21 27.21zM767.41 585.01H505.5c-15.03 0-27.21-12.19-27.21-27.21s12.18-27.21 27.21-27.21h261.91c15.03 0 27.21 12.19 27.21 27.21s-12.18 27.21-27.21 27.21zM267.4 909.76H162.32c-35.01 0-63.5-28.49-63.5-63.5V178.05c0-35.01 28.49-63.5 63.5-63.5H267.4c35.01 0 63.5 28.49 63.5 63.5v668.21c0 35.02-28.49 63.5-63.5 63.5zM162.32 168.98c-5.01 0-9.07 4.07-9.07 9.07v668.21c0 5 4.07 9.07 9.07 9.07H267.4c5.01 0 9.07-4.07 9.07-9.07V178.05c0-5-4.07-9.07-9.07-9.07H162.32z" p-id="5618"></path><path d="M869.52 909.76h-437.3c-33.33 0-60.44-27.12-60.44-60.45v-674.3c0-33.33 27.12-60.45 60.44-60.45h437.3c32.02 0 58.08 26.06 58.08 58.08V851.7c0 32-26.05 58.06-58.08 58.06z m-437.3-740.78c-3.31 0-6.01 2.71-6.01 6.02v674.31c0 3.31 2.7 6.02 6.01 6.02h437.3c2.01 0 3.65-1.63 3.65-3.65V172.63c0-2.02-1.64-3.65-3.65-3.65h-437.3z" p-id="5619"></path><path d="M214.86 293.52m-25.45 0a25.45 25.45 0 1 0 50.9 0 25.45 25.45 0 1 0-50.9 0Z" p-id="5620"></path><path d="M214.86 366.18m-25.45 0a25.45 25.45 0 1 0 50.9 0 25.45 25.45 0 1 0-50.9 0Z" p-id="5621"></path></svg>