<?xml version="1.0" standalone="no"?><!DOCTYPE svg PUBLIC "-//W3C//DTD SVG 1.1//EN" "http://www.w3.org/Graphics/SVG/1.1/DTD/svg11.dtd"><svg t="1718070573603" class="icon" viewBox="0 0 1024 1024" version="1.1" xmlns="http://www.w3.org/2000/svg" p-id="7849" xmlns:xlink="http://www.w3.org/1999/xlink" width="200" height="200"><path d="M832 0a128 128 0 0 1 128 128v768a128 128 0 0 1-128 128H192a128 128 0 0 1-128-128V128a128 128 0 0 1 128-128h640z m0 83.2H192a44.8 44.8 0 0 0-44.416 38.72L147.2 128v768a44.8 44.8 0 0 0 38.72 44.416L192 940.8h640a44.8 44.8 0 0 0 44.416-38.72L876.8 896V128a44.8 44.8 0 0 0-38.72-44.416L832 83.2z" fill="#333333" p-id="7850"></path><path d="M768 726.4a41.6 41.6 0 0 1 6.144 82.752L768 809.6H256a41.6 41.6 0 0 1-6.144-82.752L256 726.4h512zM512 150.4a233.6 233.6 0 0 1 152.512 410.56l-39.104-78.144a150.4 150.4 0 1 0-226.816 0l-39.104 78.08A233.6 233.6 0 0 1 512 150.4z" fill="#333333" p-id="7851"></path><path d="M538.624 487.936l68.224 102.336a32 32 0 0 1-26.624 49.728H443.776a32 32 0 0 1-26.624-49.728l68.224-102.336a32 32 0 0 1 53.248 0z" fill="#333333" p-id="7852"></path><path d="M512 384m-64 0a64 64 0 1 0 128 0 64 64 0 1 0-128 0Z" fill="#333333" p-id="7853"></path><path d="M352.704 769.28m-96 0a96 96 0 1 0 192 0 96 96 0 1 0-192 0Z" fill="#333333" p-id="7854"></path></svg>