<?xml version="1.0" standalone="no"?><!DOCTYPE svg PUBLIC "-//W3C//DTD SVG 1.1//EN" "http://www.w3.org/Graphics/SVG/1.1/DTD/svg11.dtd"><svg t="1718070589500" class="icon" viewBox="0 0 1024 1024" version="1.1" xmlns="http://www.w3.org/2000/svg" p-id="8833" xmlns:xlink="http://www.w3.org/1999/xlink" width="200" height="200"><path d="M815.32416 328.92416a30.72 30.72 0 1 0-43.44832-43.44832L563.2 494.1568 431.32416 362.27584a30.72 30.72 0 0 0-43.44832 0l-153.6 153.6a30.72 30.72 0 0 0 43.44832 43.44832L409.6 427.4432l131.87584 131.88096a30.72512 30.72512 0 0 0 43.44832 0l230.4-230.4z" p-id="8834"></path><path d="M35.77856 157.1328c0-49.95584 40.4992-90.45504 90.45504-90.45504h776.53504c49.95584 0 90.44992 40.4992 90.44992 90.45504v537.6c0 49.95584-40.49408 90.45504-90.44992 90.45504H126.2336c-49.95584 0-90.45504-40.4992-90.45504-90.45504v-537.6z m90.45504-29.01504a29.01504 29.01504 0 0 0-29.01504 29.01504v537.6a29.01504 29.01504 0 0 0 29.01504 29.01504h776.53504a29.01504 29.01504 0 0 0 29.00992-29.01504v-537.6a29.01504 29.01504 0 0 0-29.00992-29.01504H126.2336z" p-id="8835"></path><path d="M240.57856 932.3008a30.72 30.72 0 0 1 30.72-30.72h477.87008a30.72 30.72 0 0 1 0 61.44H271.29856a30.72 30.72 0 0 1-30.72-30.72z" p-id="8836"></path></svg>