<?xml version="1.0" standalone="no"?><!DOCTYPE svg PUBLIC "-//W3C//DTD SVG 1.1//EN" "http://www.w3.org/Graphics/SVG/1.1/DTD/svg11.dtd"><svg t="1718070355669" class="icon" viewBox="0 0 1024 1024" version="1.1" xmlns="http://www.w3.org/2000/svg" p-id="4614" xmlns:xlink="http://www.w3.org/1999/xlink" width="200" height="200"><path d="M706.048 275.904l65.856 172.704L854.08 483.2c62.848 23.392 79.968 102.08 7.776 118.24-42.72 9.568-84.352 17.28-125.44 23.232-10.336 117.632-43.52 218.88-132.608 157.44-34.88-21.536-60.608-52.064-91.296-52.064-30.688 0-111.328 89.696-159.808 66.88-40-17.856-55.424-104.576-60.64-174.976a2266.944 2266.944 0 0 1-116.576-20.352c-33.696-6.624-52.864-42.048-45.728-67.2 7.168-25.216 24.16-42.496 45.92-50.688l88.8-35.456c26.24-69.6 47.68-126.176 64.32-169.76 24.96-65.376 90.592-65.376 130.976-33.344 20.832 16.544 34.592 30.56 52.224 30.912 17.6 0.32 34.56-14.4 56.32-30.912 42.08-32.032 103.168-32.16 137.728 30.72zM571.936 667.2c-10.88 9.184-16.256 18.432 14.656 37.056 73.376 31.456 82.56-51.2 80.896-59.904-3.392-5.696-84.64 13.664-95.552 22.848z m-218.144-23.04c-0.416 19.968 11.712 89.568 80.896 59.904 37.088-22.368 20.032-32.672 13.824-37.728-27.232-12.672-91.328-27.84-94.72-22.176z m250.016-347.776c-20.256 15.296-63.68 40.512-91.296 40.512-27.616 0-64-26.016-83.04-40.512-19.072-14.464-33.6-7.2-40.544 4.8-4.608 8.032-29.44 73.408-74.592 196.128A22015.104 22015.104 0 0 0 202.88 541.76c229.472 43.744 409.344 47.008 627.712 0.96l-108.8-45.76-74.144-194.08c-6.816-14.368-23.584-21.76-43.84-6.496z" fill="#686C78" p-id="4615"></path></svg>