<?xml version="1.0" standalone="no"?><!DOCTYPE svg PUBLIC "-//W3C//DTD SVG 1.1//EN" "http://www.w3.org/Graphics/SVG/1.1/DTD/svg11.dtd"><svg t="1718070342589" class="icon" viewBox="0 0 1047 1024" version="1.1" xmlns="http://www.w3.org/2000/svg" p-id="3534" xmlns:xlink="http://www.w3.org/1999/xlink" width="204.4921875" height="200"><path d="M34.396159 306.940431l450.352345 194.676806a86.306717 86.306717 0 0 0 34.392903 5.840304 84.359949 84.359949 0 0 0 35.690747-7.787072l454.245881-202.463878a57.754119 57.754119 0 0 0 0-105.774398l-454.245881-183.645121a82.413181 82.413181 0 0 0-68.785804 0l-454.245881 194.676806A57.105196 57.105196 0 0 0 0.003257 253.079848a58.403042 58.403042 0 0 0 34.392902 53.860583zM512.65218 64.892269a17.520913 17.520913 0 0 1 16.87199 0l436.076045 177.804816-436.724968 194.676806a19.467681 19.467681 0 0 1-16.87199 0L75.278289 253.728771zM1003.237731 751.452471a30.499366 30.499366 0 0 0-11.031686 0l-463.330798 205.708492a18.818758 18.818758 0 0 1-17.520913 0l-463.330798-194.676806a42.828897 42.828897 0 0 0-9.73384 0 30.499366 30.499366 0 0 0-9.733841 59.051965l459.437263 194.676806a80.466413 80.466413 0 0 0 34.392902 7.787072 75.923954 75.923954 0 0 0 31.797212-7.13815l460.086185-202.463878a31.148289 31.148289 0 0 0 20.116603-28.552598 30.499366 30.499366 0 0 0-31.148289-34.392903z" fill="#231815" p-id="3535"></path><path d="M1007.78019 475.011407a29.850444 29.850444 0 0 0-13.627377 0L524.332788 687.858048a19.467681 19.467681 0 0 1-16.87199 0L46.72569 478.904943H34.396159A30.499366 30.499366 0 0 0 0.003257 506.159696a29.850444 29.850444 0 0 0 16.223067 26.60583l465.277567 210.250951a80.466413 80.466413 0 0 0 34.392902 7.787072 72.030418 72.030418 0 0 0 32.446134-7.787072l471.766794-210.250951a29.850444 29.850444 0 0 0 18.169835-27.254753 31.148289 31.148289 0 0 0-30.499366-30.499366z" fill="#231815" p-id="3536"></path></svg>