<?xml version="1.0" standalone="no"?><!DOCTYPE svg PUBLIC "-//W3C//DTD SVG 1.1//EN" "http://www.w3.org/Graphics/SVG/1.1/DTD/svg11.dtd"><svg t="1718070259182" class="icon" viewBox="0 0 1024 1024" version="1.1" xmlns="http://www.w3.org/2000/svg" p-id="1504" xmlns:xlink="http://www.w3.org/1999/xlink" width="200" height="200"><path d="M512 128c88.352 0 160 73.92 160 165.088 0 23.36-4.736 46.016-13.664 66.816a288.896 288.896 0 0 1 73.344 61.824l-1.504 0.096c37.856 0 69.824-32 69.824-72.736 0-4.384-0.576-14.08-1.76-29.088H864v29.12c0 59.2-40.416 109.952-96.544 125.76 16.128 30.848 26.816 65.024 30.784 101.184L800 576l96 0.064v64L800 640l-1.76-0.096a286.08 286.08 0 0 1-30.784 101.216c56.128 15.808 96.544 66.56 96.544 125.76V896h-63.776L800 866.88c0-40.192-31.136-71.84-68.32-72.672A287.328 287.328 0 0 1 512 896a287.36 287.36 0 0 1-219.68-101.76l1.504-0.064c-37.856 0-69.824 32-69.824 72.736V896H160v-29.12c0-59.2 40.416-109.952 96.544-125.76a285.728 285.728 0 0 1-30.784-101.216L224 640H128v-64h96l1.76 0.064a286.08 286.08 0 0 1 30.784-101.184C200.416 459.072 160 408.32 160 349.12V320h64v29.12c0 40.192 31.136 71.84 68.32 72.672a288.96 288.96 0 0 1 73.376-61.92A168.256 168.256 0 0 1 352 293.12C352 201.888 423.648 128 512 128z m-32 258.24a224.064 224.064 0 0 0 0 443.52V386.24z m64.032 0.032v443.456a224.064 224.064 0 0 0 0-443.456zM512 194.016c-53.024 0-96 44.352-96 99.072 0 14.208 2.88 27.936 8.384 40.544A286.464 286.464 0 0 1 512 320c30.56 0 60 4.768 87.616 13.568 5.504-12.544 8.384-26.272 8.384-40.48 0-54.72-42.976-99.072-96-99.072z" fill="#686C78" p-id="1505"></path></svg>